<mxfile host="drawio-plugin" modified="2023-10-05T12:59:56.100Z" agent="5.0 (Windows NT 10.0; Win64; x64) AppleWebKit/537.36 (KHTML, like Gecko) Chrome/111.0.0.0 Safari/537.36" version="20.5.3" etag="pPw5BgeKo57VMrIiRIC9" type="embed"><diagram id="hUhwmD7RFu5w3SUcNCwC" name="Page-1"><mxGraphModel dx="1251" dy="1149" grid="1" gridSize="10" guides="1" tooltips="1" connect="1" arrows="1" fold="1" page="0" pageScale="1" pageWidth="850" pageHeight="1100" background="none" math="0" shadow="0"><root><mxCell id="0"/><mxCell id="1" parent="0"/><mxCell id="node7" value="&lt;p style=&quot;margin:0px;margin-top:4px;text-align:center;&quot;&gt;&lt;b&gt;airplane&lt;/b&gt;&lt;/p&gt;&lt;hr size=&quot;1&quot;/&gt;&lt;p style=&quot;margin:0 0 0 4px;line-height:1.6;&quot;&gt; construction_date: date&lt;br/&gt; airplane_type_id: bigint&lt;br/&gt; current_airport_id: bigint&lt;br/&gt; serial_no: varchar(255)&lt;/p&gt;&lt;hr size=&quot;1&quot;/&gt;&lt;p style=&quot;margin:0 0 0 4px;line-height:1.6;&quot;&gt; id: bigint&lt;/p&gt;" style="verticalAlign=top;align=left;overflow=fill;fontSize=14;fontFamily=Helvetica;html=1;rounded=0;shadow=0;comic=0;labelBackgroundColor=none;strokeWidth=1;" parent="1" vertex="1"><mxGeometry x="-185" y="109" width="181" height="160" as="geometry"/></mxCell><mxCell id="node2" value="&lt;p style=&quot;margin:0px;margin-top:4px;text-align:center;&quot;&gt;&lt;b&gt;airplane_type&lt;/b&gt;&lt;/p&gt;&lt;hr size=&quot;1&quot;/&gt;&lt;p style=&quot;margin:0 0 0 4px;line-height:1.6;&quot;&gt; capacity: varchar(255)&lt;br/&gt; make: varchar(255)&lt;br/&gt; model: varchar(255)&lt;/p&gt;&lt;hr size=&quot;1&quot;/&gt;&lt;p style=&quot;margin:0 0 0 4px;line-height:1.6;&quot;&gt; id: bigint&lt;/p&gt;" style="verticalAlign=top;align=left;overflow=fill;fontSize=14;fontFamily=Helvetica;html=1;rounded=0;shadow=0;comic=0;labelBackgroundColor=none;strokeWidth=1;" parent="1" vertex="1"><mxGeometry x="-203" y="-197" width="167" height="147" as="geometry"/></mxCell><mxCell id="node6" value="&lt;p style=&quot;margin:0px;margin-top:4px;text-align:center;&quot;&gt;&lt;b&gt;airport&lt;/b&gt;&lt;/p&gt;&lt;hr size=&quot;1&quot;/&gt;&lt;p style=&quot;margin:0 0 0 4px;line-height:1.6;&quot;&gt; address: varchar(255)&lt;br/&gt; name: varchar(255)&lt;/p&gt;&lt;hr size=&quot;1&quot;/&gt;&lt;p style=&quot;margin:0 0 0 4px;line-height:1.6;&quot;&gt; id: bigint&lt;/p&gt;" style="verticalAlign=top;align=left;overflow=fill;fontSize=14;fontFamily=Helvetica;html=1;rounded=0;shadow=0;comic=0;labelBackgroundColor=none;strokeWidth=1;" parent="1" vertex="1"><mxGeometry x="-12" y="458" width="166" height="121" as="geometry"/></mxCell><mxCell id="node3" value="&lt;p style=&quot;margin:0px;margin-top:4px;text-align:center;&quot;&gt;&lt;b&gt;flight&lt;/b&gt;&lt;/p&gt;&lt;hr size=&quot;1&quot;/&gt;&lt;p style=&quot;margin:0 0 0 4px;line-height:1.6;&quot;&gt; cancelled: boolean&lt;br/&gt; price: double precision&lt;br/&gt; airplane_id: bigint&lt;br/&gt; arrival: timestamp(6)&lt;br/&gt; departure: timestamp(6)&lt;br/&gt; destination_airport_id: bigint&lt;br/&gt; origin_airport_id: bigint&lt;br/&gt; pilot_id: bigint&lt;br/&gt; code: varchar(255)&lt;/p&gt;&lt;hr size=&quot;1&quot;/&gt;&lt;p style=&quot;margin:0 0 0 4px;line-height:1.6;&quot;&gt; id: bigint&lt;/p&gt;" style="verticalAlign=top;align=left;overflow=fill;fontSize=14;fontFamily=Helvetica;html=1;rounded=0;shadow=0;comic=0;labelBackgroundColor=none;strokeWidth=1;" parent="1" vertex="1"><mxGeometry x="426" y="389" width="205" height="280" as="geometry"/></mxCell><mxCell id="node1" value="&lt;p style=&quot;margin:0px;margin-top:4px;text-align:center;&quot;&gt;&lt;b&gt;passenger&lt;/b&gt;&lt;/p&gt;&lt;hr size=&quot;1&quot;/&gt;&lt;p style=&quot;margin:0 0 0 4px;line-height:1.6;&quot;&gt; fidelity: varchar(255)&lt;br/&gt; person_firstname: varchar(255)&lt;br/&gt; person_lastname: varchar(255)&lt;/p&gt;&lt;hr size=&quot;1&quot;/&gt;&lt;p style=&quot;margin:0 0 0 4px;line-height:1.6;&quot;&gt; person_id: bigint&lt;/p&gt;" style="verticalAlign=top;align=left;overflow=fill;fontSize=14;fontFamily=Helvetica;html=1;rounded=0;shadow=0;comic=0;labelBackgroundColor=none;strokeWidth=1;" parent="1" vertex="1"><mxGeometry x="837" y="-88" width="225" height="147" as="geometry"/></mxCell><mxCell id="node5" value="&lt;p style=&quot;margin:0px;margin-top:4px;text-align:center;&quot;&gt;&lt;b&gt;pilot&lt;/b&gt;&lt;/p&gt;&lt;hr size=&quot;1&quot;/&gt;&lt;p style=&quot;margin:0 0 0 4px;line-height:1.6;&quot;&gt; person_firstname: varchar(255)&lt;br/&gt; person_lastname: varchar(255)&lt;/p&gt;&lt;hr size=&quot;1&quot;/&gt;&lt;p style=&quot;margin:0 0 0 4px;line-height:1.6;&quot;&gt; person_id: bigint&lt;/p&gt;" style="verticalAlign=top;align=left;overflow=fill;fontSize=14;fontFamily=Helvetica;html=1;rounded=0;shadow=0;comic=0;labelBackgroundColor=none;strokeWidth=1;" parent="1" vertex="1"><mxGeometry x="493" y="-76" width="225" height="121" as="geometry"/></mxCell><mxCell id="node0" value="&lt;p style=&quot;margin:0px;margin-top:4px;text-align:center;&quot;&gt;&lt;b&gt;pilot_licenses&lt;/b&gt;&lt;/p&gt;&lt;hr size=&quot;1&quot;/&gt;&lt;p style=&quot;margin:0 0 0 4px;line-height:1.6;&quot;&gt; airplane_type_id: bigint&lt;br/&gt; pilot_id: bigint&lt;/p&gt;" style="verticalAlign=top;align=left;overflow=fill;fontSize=14;fontFamily=Helvetica;html=1;rounded=0;shadow=0;comic=0;labelBackgroundColor=none;strokeWidth=1;" parent="1" vertex="1"><mxGeometry x="132" y="-172" width="171" height="94" as="geometry"/></mxCell><mxCell id="node4" value="&lt;p style=&quot;margin:0px;margin-top:4px;text-align:center;&quot;&gt;&lt;b&gt;reservation&lt;/b&gt;&lt;/p&gt;&lt;hr size=&quot;1&quot;/&gt;&lt;p style=&quot;margin:0 0 0 4px;line-height:1.6;&quot;&gt; cancelled: boolean&lt;br/&gt; price: double precision&lt;br/&gt; reservation_date: date&lt;br/&gt; flight_id: bigint&lt;br/&gt; passenger_id: bigint&lt;/p&gt;&lt;hr size=&quot;1&quot;/&gt;&lt;p style=&quot;margin:0 0 0 4px;line-height:1.6;&quot;&gt; id: bigint&lt;/p&gt;" style="verticalAlign=top;align=left;overflow=fill;fontSize=14;fontFamily=Helvetica;html=1;rounded=0;shadow=0;comic=0;labelBackgroundColor=none;strokeWidth=1;" parent="1" vertex="1"><mxGeometry x="864" y="207" width="171" height="184" as="geometry"/></mxCell><mxCell id="edge1" value="" style="html=1;rounded=1;edgeStyle=orthogonalEdgeStyle;dashed=0;startArrow=none;endArrow=block;endSize=12;strokeColor=#595959;exitX=0.360;exitY=0.000;exitDx=0;exitDy=0;entryX=0.500;entryY=1.000;entryDx=0;entryDy=0;" parent="1" source="node7" target="node2" edge="1"><mxGeometry width="50" height="50" relative="1" as="geometry"><Array as="points"/></mxGeometry></mxCell><mxCell id="label8" value="airplane_type_id:id" style="edgeLabel;resizable=0;html=1;align=left;verticalAlign=top;strokeColor=default;" parent="edge1" vertex="1" connectable="0"><mxGeometry x="-231" y="16" as="geometry"/></mxCell><mxCell id="edge8" value="" style="html=1;rounded=1;edgeStyle=orthogonalEdgeStyle;dashed=0;startArrow=none;endArrow=block;endSize=12;strokeColor=#595959;exitX=0.500;exitY=1.000;exitDx=0;exitDy=0;entryX=0.000;entryY=0.500;entryDx=0;entryDy=0;" parent="1" source="node7" target="node6" edge="1"><mxGeometry width="50" height="50" relative="1" as="geometry"><Array as="points"><mxPoint x="-94" y="514"/><mxPoint x="-40" y="514"/><mxPoint x="-40" y="530"/><mxPoint x="-30" y="530"/><mxPoint x="-30" y="519"/></Array></mxGeometry></mxCell><mxCell id="label50" value="current_airport_id:id" style="edgeLabel;resizable=0;html=1;align=left;verticalAlign=top;strokeColor=default;" parent="edge8" vertex="1" connectable="0"><mxGeometry x="-171" y="504" as="geometry"/></mxCell><mxCell id="edge0" value="" style="html=1;rounded=1;edgeStyle=orthogonalEdgeStyle;dashed=0;startArrow=none;endArrow=block;endSize=12;strokeColor=#595959;exitX=0.500;exitY=0.000;exitDx=0;exitDy=0;entryX=1.000;entryY=0.500;entryDx=0;entryDy=0;" parent="1" source="node3" target="node7" edge="1"><mxGeometry width="50" height="50" relative="1" as="geometry"><Array as="points"><mxPoint x="528" y="189"/></Array></mxGeometry></mxCell><mxCell id="label2" value="airplane_id:id" style="edgeLabel;resizable=0;html=1;align=left;verticalAlign=top;strokeColor=default;" parent="edge0" vertex="1" connectable="0"><mxGeometry x="114" y="124" as="geometry"/></mxCell><mxCell id="edge2" value="" style="html=1;rounded=1;edgeStyle=orthogonalEdgeStyle;dashed=0;startArrow=none;endArrow=block;endSize=12;strokeColor=#595959;exitX=0.000;exitY=0.445;exitDx=0;exitDy=0;entryX=1.000;entryY=0.500;entryDx=0;entryDy=0;" parent="1" source="node3" target="node6" edge="1"><mxGeometry width="50" height="50" relative="1" as="geometry"><Array as="points"/></mxGeometry></mxCell><mxCell id="label14" value="destination_airport_id:id" style="edgeLabel;resizable=0;html=1;align=left;verticalAlign=top;strokeColor=default;" parent="edge2" vertex="1" connectable="0"><mxGeometry x="159" y="504" as="geometry"/></mxCell><mxCell id="edge3" value="" style="html=1;rounded=1;edgeStyle=orthogonalEdgeStyle;dashed=0;startArrow=none;endArrow=block;endSize=12;strokeColor=#595959;exitX=0.000;exitY=0.392;exitDx=0;exitDy=0;entryX=1.000;entryY=0.366;entryDx=0;entryDy=0;" parent="1" source="node3" target="node6" edge="1"><mxGeometry width="50" height="50" relative="1" as="geometry"><Array as="points"/></mxGeometry></mxCell><mxCell id="label20" value="origin_airport_id:id" style="edgeLabel;resizable=0;html=1;align=left;verticalAlign=top;strokeColor=default;" parent="edge3" vertex="1" connectable="0"><mxGeometry x="237" y="542" as="geometry"/></mxCell><mxCell id="edge4" value="" style="html=1;rounded=1;edgeStyle=orthogonalEdgeStyle;dashed=0;startArrow=none;endArrow=block;endSize=12;strokeColor=#595959;exitX=0.802;exitY=0.000;exitDx=0;exitDy=0;entryX=0.433;entryY=1.000;entryDx=0;entryDy=0;" parent="1" source="node3" target="node5" edge="1"><mxGeometry width="50" height="50" relative="1" as="geometry"><Array as="points"/></mxGeometry></mxCell><mxCell id="label26" value="pilot_id:person_id" style="edgeLabel;resizable=0;html=1;align=left;verticalAlign=top;strokeColor=default;" parent="edge4" vertex="1" connectable="0"><mxGeometry x="529" y="41" as="geometry"/></mxCell><mxCell id="edge5" value="" style="html=1;rounded=1;edgeStyle=orthogonalEdgeStyle;dashed=0;startArrow=none;endArrow=block;endSize=12;strokeColor=#595959;exitX=0.000;exitY=0.500;exitDx=0;exitDy=0;entryX=1.000;entryY=0.500;entryDx=0;entryDy=0;" parent="1" source="node0" target="node2" edge="1"><mxGeometry width="50" height="50" relative="1" as="geometry"><Array as="points"/></mxGeometry></mxCell><mxCell id="label32" value="airplane_type_id:id" style="edgeLabel;resizable=0;html=1;align=left;verticalAlign=top;strokeColor=default;" parent="edge5" vertex="1" connectable="0"><mxGeometry x="-31" y="-139" as="geometry"/></mxCell><mxCell id="edge6" value="" style="html=1;rounded=1;edgeStyle=orthogonalEdgeStyle;dashed=0;startArrow=none;endArrow=block;endSize=12;strokeColor=#595959;exitX=1.000;exitY=0.500;exitDx=0;exitDy=0;entryX=0.500;entryY=0.000;entryDx=0;entryDy=0;" parent="1" source="node0" target="node5" edge="1"><mxGeometry width="50" height="50" relative="1" as="geometry"><Array as="points"><mxPoint x="605" y="-129"/></Array></mxGeometry></mxCell><mxCell id="label38" value="pilot_id:person_id" style="edgeLabel;resizable=0;html=1;align=left;verticalAlign=top;strokeColor=default;" parent="edge6" vertex="1" connectable="0"><mxGeometry x="507" y="-190" as="geometry"/></mxCell><mxCell id="edge9" value="" style="html=1;rounded=1;edgeStyle=orthogonalEdgeStyle;dashed=0;startArrow=none;endArrow=block;endSize=12;strokeColor=#595959;exitX=0.412;exitY=1.000;exitDx=0;exitDy=0;entryX=1.000;entryY=0.500;entryDx=0;entryDy=0;" parent="1" source="node4" target="node3" edge="1"><mxGeometry width="50" height="50" relative="1" as="geometry"><Array as="points"><mxPoint x="935" y="529"/></Array></mxGeometry></mxCell><mxCell id="label56" value="flight_id:id" style="edgeLabel;resizable=0;html=1;align=left;verticalAlign=top;strokeColor=default;" parent="edge9" vertex="1" connectable="0"><mxGeometry x="744" y="532" as="geometry"/></mxCell><mxCell id="edge7" value="" style="html=1;rounded=1;edgeStyle=orthogonalEdgeStyle;dashed=0;startArrow=none;endArrow=block;endSize=12;strokeColor=#595959;exitX=0.500;exitY=0.000;exitDx=0;exitDy=0;entryX=0.500;entryY=1.000;entryDx=0;entryDy=0;" parent="1" source="node4" target="node1" edge="1"><mxGeometry width="50" height="50" relative="1" as="geometry"><Array as="points"/></mxGeometry></mxCell><mxCell id="label44" value="passenger_id:person_id" style="edgeLabel;resizable=0;html=1;align=left;verticalAlign=top;strokeColor=default;" parent="edge7" vertex="1" connectable="0"><mxGeometry x="867" y="61" as="geometry"/></mxCell></root></mxGraphModel></diagram></mxfile>